{
	"asset":{
		"generator":"Khronos glTF Blender I/O v3.5.30",
		"version":"2.0"
	},
	"scene":0,
	"scenes":[
		{
			"name":"Scene",
			"nodes":[
				0,
				1,
				2,
				3,
				4,
				5,
				6,
				7,
				8
			]
		}
	],
	"nodes":[
		{
			"mesh":0,
			"name":"Sphere",
			"translation":[
				0,
				1.1354142427444458,
				0
			]
		},
		{
			"mesh":1,
			"name":"Sphere.002",
			"scale":[
				0.5,
				0.5,
				0.5
			],
			"translation":[
				0,
				2.5408849716186523,
				0
			]
		},
		{
			"mesh":2,
			"name":"Sphere.001",
			"scale":[
				0.3149999976158142,
				0.3149999976158142,
				0.3149999976158142
			],
			"translation":[
				0,
				3.227062940597534,
				0
			]
		},
		{
			"mesh":3,
			"name":"Sphere.003",
			"scale":[
				0.05000000074505806,
				0.05000000074505806,
				0.05000000074505806
			],
			"translation":[
				-0.10576311498880386,
				3.3253421783447266,
				0.27544185519218445
			]
		},
		{
			"mesh":4,
			"name":"Sphere.004",
			"scale":[
				0.05000000074505806,
				0.05000000074505806,
				0.05000000074505806
			],
			"translation":[
				0.08010021597146988,
				3.3280904293060303,
				0.2734517455101013
			]
		},
		{
			"mesh":5,
			"name":"Cone",
			"rotation":[
				0.654323160648346,
				0.02369646355509758,
				0.03818490356206894,
				0.7548785209655762
			],
			"scale":[
				0.13033592700958252,
				0.13033592700958252,
				0.13033592700958252
			],
			"translation":[
				-0.001259543001651764,
				3.2174901962280273,
				0.2990068793296814
			]
		},
		{
			"mesh":6,
			"name":"Cylinder",
			"rotation":[
				0,
				-0.993972897529602,
				0,
				0.1096261590719223
			],
			"scale":[
				-0.32227829098701477,
				-0.2474386990070343,
				-0.32227829098701477
			],
			"translation":[
				0.6614899635314941,
				15.79315185546875,
				-1.1691514253616333
			]
		},
		{
			"mesh":7,
			"name":"Cylinder.001",
			"rotation":[
				0.6859244704246521,
				-0.02046104148030281,
				-0.7272363901138306,
				0.014705328270792961
			],
			"scale":[
				-0.43397992849349976,
				-0.08679598569869995,
				-0.7035492062568665
			],
			"translation":[
				0.0018499866127967834,
				3.557267904281616,
				-0.02091480791568756
			]
		},
		{
			"mesh":8,
			"name":"Cone.001",
			"rotation":[
				-0.03236448019742966,
				0.0013581054517999291,
				0.0015828859759494662,
				0.9994739890098572
			],
			"scale":[
				0.38557663559913635,
				0.38557669520378113,
				0.3855767250061035
			],
			"translation":[
				0.004374138079583645,
				3.995412826538086,
				-0.01594284549355507
			]
		}
	],
	"meshes":[
		{
			"name":"Sphere",
			"primitives":[
				{
					"attributes":{
						"POSITION":0,
						"TEXCOORD_0":1,
						"NORMAL":2
					},
					"indices":3
				}
			]
		},
		{
			"name":"Sphere.001",
			"primitives":[
				{
					"attributes":{
						"POSITION":4,
						"TEXCOORD_0":5,
						"NORMAL":6
					},
					"indices":3
				}
			]
		},
		{
			"name":"Sphere.002",
			"primitives":[
				{
					"attributes":{
						"POSITION":7,
						"TEXCOORD_0":8,
						"NORMAL":9
					},
					"indices":3
				}
			]
		},
		{
			"name":"Sphere.003",
			"primitives":[
				{
					"attributes":{
						"POSITION":10,
						"TEXCOORD_0":11,
						"NORMAL":12
					},
					"indices":3
				}
			]
		},
		{
			"name":"Sphere.004",
			"primitives":[
				{
					"attributes":{
						"POSITION":13,
						"TEXCOORD_0":14,
						"NORMAL":15
					},
					"indices":3
				}
			]
		},
		{
			"name":"Cone",
			"primitives":[
				{
					"attributes":{
						"POSITION":16,
						"TEXCOORD_0":17,
						"NORMAL":18
					},
					"indices":19
				}
			]
		},
		{
			"name":"Cylinder",
			"primitives":[
				{
					"attributes":{
						"POSITION":20,
						"TEXCOORD_0":21,
						"NORMAL":22
					},
					"indices":23
				}
			]
		},
		{
			"name":"Cylinder.001",
			"primitives":[
				{
					"attributes":{
						"POSITION":24,
						"TEXCOORD_0":25,
						"NORMAL":26
					},
					"indices":23
				}
			]
		},
		{
			"name":"Cone.001",
			"primitives":[
				{
					"attributes":{
						"POSITION":27,
						"TEXCOORD_0":28,
						"NORMAL":29
					},
					"indices":19
				}
			]
		}
	],
	"accessors":[
		{
			"bufferView":0,
			"componentType":5126,
			"count":1984,
			"max":[
				0.9999997019767761,
				1,
				0.9999994039535522
			],
			"min":[
				-0.9999990463256836,
				-1,
				-0.9999987483024597
			],
			"type":"VEC3"
		},
		{
			"bufferView":1,
			"componentType":5126,
			"count":1984,
			"type":"VEC2"
		},
		{
			"bufferView":2,
			"componentType":5126,
			"count":1984,
			"type":"VEC3"
		},
		{
			"bufferView":3,
			"componentType":5123,
			"count":2880,
			"type":"SCALAR"
		},
		{
			"bufferView":4,
			"componentType":5126,
			"count":1984,
			"max":[
				0.9999997019767761,
				1,
				0.9999994039535522
			],
			"min":[
				-0.9999990463256836,
				-1,
				-0.9999987483024597
			],
			"type":"VEC3"
		},
		{
			"bufferView":5,
			"componentType":5126,
			"count":1984,
			"type":"VEC2"
		},
		{
			"bufferView":6,
			"componentType":5126,
			"count":1984,
			"type":"VEC3"
		},
		{
			"bufferView":7,
			"componentType":5126,
			"count":1984,
			"max":[
				0.9999997019767761,
				1,
				0.9999994039535522
			],
			"min":[
				-0.9999990463256836,
				-1,
				-0.9999987483024597
			],
			"type":"VEC3"
		},
		{
			"bufferView":8,
			"componentType":5126,
			"count":1984,
			"type":"VEC2"
		},
		{
			"bufferView":9,
			"componentType":5126,
			"count":1984,
			"type":"VEC3"
		},
		{
			"bufferView":10,
			"componentType":5126,
			"count":1984,
			"max":[
				0.9999997019767761,
				1,
				0.9999994039535522
			],
			"min":[
				-0.9999990463256836,
				-1,
				-0.9999987483024597
			],
			"type":"VEC3"
		},
		{
			"bufferView":11,
			"componentType":5126,
			"count":1984,
			"type":"VEC2"
		},
		{
			"bufferView":12,
			"componentType":5126,
			"count":1984,
			"type":"VEC3"
		},
		{
			"bufferView":13,
			"componentType":5126,
			"count":1984,
			"max":[
				0.9999997019767761,
				1,
				0.9999994039535522
			],
			"min":[
				-0.9999990463256836,
				-1,
				-0.9999987483024597
			],
			"type":"VEC3"
		},
		{
			"bufferView":14,
			"componentType":5126,
			"count":1984,
			"type":"VEC2"
		},
		{
			"bufferView":15,
			"componentType":5126,
			"count":1984,
			"type":"VEC3"
		},
		{
			"bufferView":16,
			"componentType":5126,
			"count":128,
			"max":[
				1,
				1,
				1
			],
			"min":[
				-1,
				-1,
				-1
			],
			"type":"VEC3"
		},
		{
			"bufferView":17,
			"componentType":5126,
			"count":128,
			"type":"VEC2"
		},
		{
			"bufferView":18,
			"componentType":5126,
			"count":128,
			"type":"VEC3"
		},
		{
			"bufferView":19,
			"componentType":5123,
			"count":186,
			"type":"SCALAR"
		},
		{
			"bufferView":20,
			"componentType":5126,
			"count":192,
			"max":[
				1,
				1,
				1
			],
			"min":[
				-1,
				-1,
				-1
			],
			"type":"VEC3"
		},
		{
			"bufferView":21,
			"componentType":5126,
			"count":192,
			"type":"VEC2"
		},
		{
			"bufferView":22,
			"componentType":5126,
			"count":192,
			"type":"VEC3"
		},
		{
			"bufferView":23,
			"componentType":5123,
			"count":372,
			"type":"SCALAR"
		},
		{
			"bufferView":24,
			"componentType":5126,
			"count":192,
			"max":[
				1,
				1,
				1
			],
			"min":[
				-1,
				-1,
				-1
			],
			"type":"VEC3"
		},
		{
			"bufferView":25,
			"componentType":5126,
			"count":192,
			"type":"VEC2"
		},
		{
			"bufferView":26,
			"componentType":5126,
			"count":192,
			"type":"VEC3"
		},
		{
			"bufferView":27,
			"componentType":5126,
			"count":128,
			"max":[
				1,
				1,
				1
			],
			"min":[
				-1,
				-1,
				-1
			],
			"type":"VEC3"
		},
		{
			"bufferView":28,
			"componentType":5126,
			"count":128,
			"type":"VEC2"
		},
		{
			"bufferView":29,
			"componentType":5126,
			"count":128,
			"type":"VEC3"
		}
	],
	"bufferViews":[
		{
			"buffer":0,
			"byteLength":23808,
			"byteOffset":0,
			"target":34962
		},
		{
			"buffer":0,
			"byteLength":15872,
			"byteOffset":23808,
			"target":34962
		},
		{
			"buffer":0,
			"byteLength":23808,
			"byteOffset":39680,
			"target":34962
		},
		{
			"buffer":0,
			"byteLength":5760,
			"byteOffset":63488,
			"target":34963
		},
		{
			"buffer":0,
			"byteLength":23808,
			"byteOffset":69248,
			"target":34962
		},
		{
			"buffer":0,
			"byteLength":15872,
			"byteOffset":93056,
			"target":34962
		},
		{
			"buffer":0,
			"byteLength":23808,
			"byteOffset":108928,
			"target":34962
		},
		{
			"buffer":0,
			"byteLength":23808,
			"byteOffset":132736,
			"target":34962
		},
		{
			"buffer":0,
			"byteLength":15872,
			"byteOffset":156544,
			"target":34962
		},
		{
			"buffer":0,
			"byteLength":23808,
			"byteOffset":172416,
			"target":34962
		},
		{
			"buffer":0,
			"byteLength":23808,
			"byteOffset":196224,
			"target":34962
		},
		{
			"buffer":0,
			"byteLength":15872,
			"byteOffset":220032,
			"target":34962
		},
		{
			"buffer":0,
			"byteLength":23808,
			"byteOffset":235904,
			"target":34962
		},
		{
			"buffer":0,
			"byteLength":23808,
			"byteOffset":259712,
			"target":34962
		},
		{
			"buffer":0,
			"byteLength":15872,
			"byteOffset":283520,
			"target":34962
		},
		{
			"buffer":0,
			"byteLength":23808,
			"byteOffset":299392,
			"target":34962
		},
		{
			"buffer":0,
			"byteLength":1536,
			"byteOffset":323200,
			"target":34962
		},
		{
			"buffer":0,
			"byteLength":1024,
			"byteOffset":324736,
			"target":34962
		},
		{
			"buffer":0,
			"byteLength":1536,
			"byteOffset":325760,
			"target":34962
		},
		{
			"buffer":0,
			"byteLength":372,
			"byteOffset":327296,
			"target":34963
		},
		{
			"buffer":0,
			"byteLength":2304,
			"byteOffset":327668,
			"target":34962
		},
		{
			"buffer":0,
			"byteLength":1536,
			"byteOffset":329972,
			"target":34962
		},
		{
			"buffer":0,
			"byteLength":2304,
			"byteOffset":331508,
			"target":34962
		},
		{
			"buffer":0,
			"byteLength":744,
			"byteOffset":333812,
			"target":34963
		},
		{
			"buffer":0,
			"byteLength":2304,
			"byteOffset":334556,
			"target":34962
		},
		{
			"buffer":0,
			"byteLength":1536,
			"byteOffset":336860,
			"target":34962
		},
		{
			"buffer":0,
			"byteLength":2304,
			"byteOffset":338396,
			"target":34962
		},
		{
			"buffer":0,
			"byteLength":1536,
			"byteOffset":340700,
			"target":34962
		},
		{
			"buffer":0,
			"byteLength":1024,
			"byteOffset":342236,
			"target":34962
		},
		{
			"buffer":0,
			"byteLength":1536,
			"byteOffset":343260,
			"target":34962
		}
	],
	"buffers":[
		{
			"byteLength":344796,
			"uri":"SNOWMAN.bin"
		}
	]
}
