{
	"asset":{
		"generator":"Khronos glTF Blender I/O v3.5.30",
		"version":"2.0"
	},
	"scene":0,
	"scenes":[
		{
			"name":"Scene",
			"nodes":[
				0,
				1,
				2,
				3,
				4,
				5,
				6,
				7,
				8,
				9,
				10,
				11,
				12
			]
		}
	],
	"nodes":[
		{
			"mesh":0,
			"name":"Sphere",
			"translation":[
				0,
				0.7920194268226624,
				0
			]
		},
		{
			"mesh":1,
			"name":"Sphere.001",
			"scale":[
				0.7309762835502625,
				0.7309762835502625,
				0.7309762835502625
			],
			"translation":[
				0,
				2.232675552368164,
				0
			]
		},
		{
			"mesh":2,
			"name":"Sphere.002",
			"scale":[
				-0.5217040777206421,
				-0.5217040777206421,
				-0.5217040777206421
			],
			"translation":[
				0,
				3.3063859939575195,
				0
			]
		},
		{
			"mesh":3,
			"name":"Sphere.003",
			"scale":[
				-0.07246623933315277,
				-0.07246623933315277,
				-0.07246623933315277
			],
			"translation":[
				-0.35450178384780884,
				3.3832902908325195,
				-0.3535277545452118
			]
		},
		{
			"mesh":4,
			"name":"Sphere.004",
			"scale":[
				-0.07246623933315277,
				-0.07246623933315277,
				-0.07246623933315277
			],
			"translation":[
				-0.49980804324150085,
				3.387500047683716,
				-0.024852532893419266
			]
		},
		{
			"mesh":5,
			"name":"Cone",
			"rotation":[
				-0.4748172461986542,
				0.23065099120140076,
				0.5509706735610962,
				0.6463590264320374
			],
			"scale":[
				0.11906606703996658,
				0.11906605958938599,
				0.11906606703996658
			],
			"translation":[
				-0.48587989807128906,
				3.270519495010376,
				-0.2182358354330063
			]
		},
		{
			"mesh":6,
			"name":"Cylinder",
			"scale":[
				0.5375807285308838,
				0.0500958152115345,
				0.5375807285308838
			],
			"translation":[
				0,
				3.746293067932129,
				0
			]
		},
		{
			"mesh":7,
			"name":"Cylinder.001",
			"scale":[
				0.3844936192035675,
				0.4300113916397095,
				0.42552825808525085
			],
			"translation":[
				0,
				4.190678119659424,
				0
			]
		},
		{
			"mesh":8,
			"name":"Cylinder.002",
			"rotation":[
				0.4479087293148041,
				0,
				0,
				0.894079327583313
			],
			"scale":[
				0.038605913519859314,
				0.8062157034873962,
				0.03643820062279701
			],
			"translation":[
				-0.03361028432846069,
				2.7733747959136963,
				1.064434289932251
			]
		},
		{
			"mesh":9,
			"name":"Cylinder.003",
			"rotation":[
				-0.46628719568252563,
				0,
				0,
				0.8846334218978882
			],
			"scale":[
				0.038605913519859314,
				0.8062157034873962,
				0.03643820434808731
			],
			"translation":[
				0.11990425735712051,
				2.8495426177978516,
				-1.1060333251953125
			]
		},
		{
			"mesh":10,
			"name":"Sphere.005",
			"scale":[
				-0.10021432489156723,
				-0.10021432489156723,
				-0.10021432489156723
			],
			"translation":[
				-0.6032734513282776,
				2.509484052658081,
				-0.29273226857185364
			]
		},
		{
			"mesh":11,
			"name":"Sphere.006",
			"scale":[
				-0.10021432489156723,
				-0.10021432489156723,
				-0.10021432489156723
			],
			"translation":[
				-0.6129999160766602,
				2.207029104232788,
				-0.30601245164871216
			]
		},
		{
			"mesh":12,
			"name":"Sphere.007",
			"scale":[
				-0.10021432489156723,
				-0.10021432489156723,
				-0.10021432489156723
			],
			"translation":[
				-0.6328014731407166,
				1.918870210647583,
				-0.31717103719711304
			]
		}
	],
	"materials":[
		{
			"doubleSided":true,
			"name":"Material.006",
			"pbrMetallicRoughness":{
				"metallicFactor":0,
				"roughnessFactor":0.5
			}
		},
		{
			"doubleSided":true,
			"name":"Material.005",
			"pbrMetallicRoughness":{
				"metallicFactor":0,
				"roughnessFactor":0.5
			}
		},
		{
			"doubleSided":true,
			"name":"Material.003",
			"pbrMetallicRoughness":{
				"baseColorFactor":[
					0,
					0,
					0,
					1
				],
				"metallicFactor":0,
				"roughnessFactor":0.5
			}
		},
		{
			"doubleSided":true,
			"name":"Material.002",
			"pbrMetallicRoughness":{
				"baseColorFactor":[
					0,
					0,
					0,
					1
				],
				"metallicFactor":0,
				"roughnessFactor":0.5
			}
		},
		{
			"doubleSided":true,
			"name":"Material.004",
			"pbrMetallicRoughness":{
				"baseColorFactor":[
					0.8000000715255737,
					0.13721336424350739,
					0,
					1
				],
				"metallicFactor":0,
				"roughnessFactor":0.5
			}
		},
		{
			"doubleSided":true,
			"name":"Material.001",
			"pbrMetallicRoughness":{
				"baseColorFactor":[
					0,
					0,
					0,
					1
				],
				"metallicFactor":0,
				"roughnessFactor":0.5
			}
		},
		{
			"doubleSided":true,
			"name":"Material.007",
			"pbrMetallicRoughness":{
				"baseColorFactor":[
					0.6738476753234863,
					0.2124125361442566,
					0.04845553636550903,
					1
				],
				"metallicFactor":0,
				"roughnessFactor":0.5
			}
		},
		{
			"doubleSided":true,
			"name":"Material.008",
			"pbrMetallicRoughness":{
				"baseColorFactor":[
					1,
					0.41003668308258057,
					0.03221339359879494,
					1
				],
				"metallicFactor":0,
				"roughnessFactor":0.5
			}
		}
	],
	"meshes":[
		{
			"name":"Sphere",
			"primitives":[
				{
					"attributes":{
						"POSITION":0,
						"TEXCOORD_0":1,
						"NORMAL":2
					},
					"indices":3,
					"material":0
				}
			]
		},
		{
			"name":"Sphere.001",
			"primitives":[
				{
					"attributes":{
						"POSITION":4,
						"TEXCOORD_0":5,
						"NORMAL":6
					},
					"indices":3,
					"material":1
				}
			]
		},
		{
			"name":"Sphere.002",
			"primitives":[
				{
					"attributes":{
						"POSITION":7,
						"TEXCOORD_0":8,
						"NORMAL":9
					},
					"indices":3
				}
			]
		},
		{
			"name":"Sphere.007",
			"primitives":[
				{
					"attributes":{
						"POSITION":10,
						"TEXCOORD_0":11,
						"NORMAL":12
					},
					"indices":3,
					"material":2
				}
			]
		},
		{
			"name":"Sphere.008",
			"primitives":[
				{
					"attributes":{
						"POSITION":13,
						"TEXCOORD_0":14,
						"NORMAL":15
					},
					"indices":3,
					"material":3
				}
			]
		},
		{
			"name":"Cone",
			"primitives":[
				{
					"attributes":{
						"POSITION":16,
						"TEXCOORD_0":17,
						"NORMAL":18
					},
					"indices":19,
					"material":4
				}
			]
		},
		{
			"name":"Cylinder",
			"primitives":[
				{
					"attributes":{
						"POSITION":20,
						"TEXCOORD_0":21,
						"NORMAL":22
					},
					"indices":23
				}
			]
		},
		{
			"name":"Cylinder.001",
			"primitives":[
				{
					"attributes":{
						"POSITION":24,
						"TEXCOORD_0":25,
						"NORMAL":26
					},
					"indices":23,
					"material":5
				}
			]
		},
		{
			"name":"Cylinder.002",
			"primitives":[
				{
					"attributes":{
						"POSITION":27,
						"TEXCOORD_0":28,
						"NORMAL":29
					},
					"indices":23,
					"material":6
				}
			]
		},
		{
			"name":"Cylinder.003",
			"primitives":[
				{
					"attributes":{
						"POSITION":30,
						"TEXCOORD_0":31,
						"NORMAL":32
					},
					"indices":23,
					"material":7
				}
			]
		},
		{
			"name":"Sphere.009",
			"primitives":[
				{
					"attributes":{
						"POSITION":33,
						"TEXCOORD_0":34,
						"NORMAL":35
					},
					"indices":3,
					"material":3
				}
			]
		},
		{
			"name":"Sphere.010",
			"primitives":[
				{
					"attributes":{
						"POSITION":36,
						"TEXCOORD_0":37,
						"NORMAL":38
					},
					"indices":3,
					"material":3
				}
			]
		},
		{
			"name":"Sphere.011",
			"primitives":[
				{
					"attributes":{
						"POSITION":39,
						"TEXCOORD_0":40,
						"NORMAL":41
					},
					"indices":3,
					"material":3
				}
			]
		}
	],
	"accessors":[
		{
			"bufferView":0,
			"componentType":5126,
			"count":1984,
			"max":[
				0.9999997019767761,
				1,
				0.9999994039535522
			],
			"min":[
				-0.9999990463256836,
				-1,
				-0.9999987483024597
			],
			"type":"VEC3"
		},
		{
			"bufferView":1,
			"componentType":5126,
			"count":1984,
			"type":"VEC2"
		},
		{
			"bufferView":2,
			"componentType":5126,
			"count":1984,
			"type":"VEC3"
		},
		{
			"bufferView":3,
			"componentType":5123,
			"count":2880,
			"type":"SCALAR"
		},
		{
			"bufferView":4,
			"componentType":5126,
			"count":1984,
			"max":[
				0.9999997019767761,
				1,
				0.9999994039535522
			],
			"min":[
				-0.9999990463256836,
				-1,
				-0.9999987483024597
			],
			"type":"VEC3"
		},
		{
			"bufferView":5,
			"componentType":5126,
			"count":1984,
			"type":"VEC2"
		},
		{
			"bufferView":6,
			"componentType":5126,
			"count":1984,
			"type":"VEC3"
		},
		{
			"bufferView":7,
			"componentType":5126,
			"count":1984,
			"max":[
				0.9999997019767761,
				1,
				0.9999994039535522
			],
			"min":[
				-0.9999990463256836,
				-1,
				-0.9999987483024597
			],
			"type":"VEC3"
		},
		{
			"bufferView":8,
			"componentType":5126,
			"count":1984,
			"type":"VEC2"
		},
		{
			"bufferView":9,
			"componentType":5126,
			"count":1984,
			"type":"VEC3"
		},
		{
			"bufferView":10,
			"componentType":5126,
			"count":1984,
			"max":[
				0.9999997019767761,
				1,
				0.9999994039535522
			],
			"min":[
				-0.9999990463256836,
				-1,
				-0.9999987483024597
			],
			"type":"VEC3"
		},
		{
			"bufferView":11,
			"componentType":5126,
			"count":1984,
			"type":"VEC2"
		},
		{
			"bufferView":12,
			"componentType":5126,
			"count":1984,
			"type":"VEC3"
		},
		{
			"bufferView":13,
			"componentType":5126,
			"count":1984,
			"max":[
				0.9999997019767761,
				1,
				0.9999994039535522
			],
			"min":[
				-0.9999990463256836,
				-1,
				-0.9999987483024597
			],
			"type":"VEC3"
		},
		{
			"bufferView":14,
			"componentType":5126,
			"count":1984,
			"type":"VEC2"
		},
		{
			"bufferView":15,
			"componentType":5126,
			"count":1984,
			"type":"VEC3"
		},
		{
			"bufferView":16,
			"componentType":5126,
			"count":128,
			"max":[
				1,
				1,
				1
			],
			"min":[
				-1,
				-1,
				-1
			],
			"type":"VEC3"
		},
		{
			"bufferView":17,
			"componentType":5126,
			"count":128,
			"type":"VEC2"
		},
		{
			"bufferView":18,
			"componentType":5126,
			"count":128,
			"type":"VEC3"
		},
		{
			"bufferView":19,
			"componentType":5123,
			"count":186,
			"type":"SCALAR"
		},
		{
			"bufferView":20,
			"componentType":5126,
			"count":192,
			"max":[
				1,
				1,
				1
			],
			"min":[
				-1,
				-1,
				-1
			],
			"type":"VEC3"
		},
		{
			"bufferView":21,
			"componentType":5126,
			"count":192,
			"type":"VEC2"
		},
		{
			"bufferView":22,
			"componentType":5126,
			"count":192,
			"type":"VEC3"
		},
		{
			"bufferView":23,
			"componentType":5123,
			"count":372,
			"type":"SCALAR"
		},
		{
			"bufferView":24,
			"componentType":5126,
			"count":192,
			"max":[
				1,
				1,
				1
			],
			"min":[
				-1,
				-1,
				-1
			],
			"type":"VEC3"
		},
		{
			"bufferView":25,
			"componentType":5126,
			"count":192,
			"type":"VEC2"
		},
		{
			"bufferView":26,
			"componentType":5126,
			"count":192,
			"type":"VEC3"
		},
		{
			"bufferView":27,
			"componentType":5126,
			"count":192,
			"max":[
				1,
				1,
				1
			],
			"min":[
				-1,
				-1,
				-1
			],
			"type":"VEC3"
		},
		{
			"bufferView":28,
			"componentType":5126,
			"count":192,
			"type":"VEC2"
		},
		{
			"bufferView":29,
			"componentType":5126,
			"count":192,
			"type":"VEC3"
		},
		{
			"bufferView":30,
			"componentType":5126,
			"count":192,
			"max":[
				1,
				1,
				1
			],
			"min":[
				-1,
				-1,
				-1
			],
			"type":"VEC3"
		},
		{
			"bufferView":31,
			"componentType":5126,
			"count":192,
			"type":"VEC2"
		},
		{
			"bufferView":32,
			"componentType":5126,
			"count":192,
			"type":"VEC3"
		},
		{
			"bufferView":33,
			"componentType":5126,
			"count":1984,
			"max":[
				0.9999997019767761,
				1,
				0.9999994039535522
			],
			"min":[
				-0.9999990463256836,
				-1,
				-0.9999987483024597
			],
			"type":"VEC3"
		},
		{
			"bufferView":34,
			"componentType":5126,
			"count":1984,
			"type":"VEC2"
		},
		{
			"bufferView":35,
			"componentType":5126,
			"count":1984,
			"type":"VEC3"
		},
		{
			"bufferView":36,
			"componentType":5126,
			"count":1984,
			"max":[
				0.9999997019767761,
				1,
				0.9999994039535522
			],
			"min":[
				-0.9999990463256836,
				-1,
				-0.9999987483024597
			],
			"type":"VEC3"
		},
		{
			"bufferView":37,
			"componentType":5126,
			"count":1984,
			"type":"VEC2"
		},
		{
			"bufferView":38,
			"componentType":5126,
			"count":1984,
			"type":"VEC3"
		},
		{
			"bufferView":39,
			"componentType":5126,
			"count":1984,
			"max":[
				0.9999997019767761,
				1,
				0.9999994039535522
			],
			"min":[
				-0.9999990463256836,
				-1,
				-0.9999987483024597
			],
			"type":"VEC3"
		},
		{
			"bufferView":40,
			"componentType":5126,
			"count":1984,
			"type":"VEC2"
		},
		{
			"bufferView":41,
			"componentType":5126,
			"count":1984,
			"type":"VEC3"
		}
	],
	"bufferViews":[
		{
			"buffer":0,
			"byteLength":23808,
			"byteOffset":0,
			"target":34962
		},
		{
			"buffer":0,
			"byteLength":15872,
			"byteOffset":23808,
			"target":34962
		},
		{
			"buffer":0,
			"byteLength":23808,
			"byteOffset":39680,
			"target":34962
		},
		{
			"buffer":0,
			"byteLength":5760,
			"byteOffset":63488,
			"target":34963
		},
		{
			"buffer":0,
			"byteLength":23808,
			"byteOffset":69248,
			"target":34962
		},
		{
			"buffer":0,
			"byteLength":15872,
			"byteOffset":93056,
			"target":34962
		},
		{
			"buffer":0,
			"byteLength":23808,
			"byteOffset":108928,
			"target":34962
		},
		{
			"buffer":0,
			"byteLength":23808,
			"byteOffset":132736,
			"target":34962
		},
		{
			"buffer":0,
			"byteLength":15872,
			"byteOffset":156544,
			"target":34962
		},
		{
			"buffer":0,
			"byteLength":23808,
			"byteOffset":172416,
			"target":34962
		},
		{
			"buffer":0,
			"byteLength":23808,
			"byteOffset":196224,
			"target":34962
		},
		{
			"buffer":0,
			"byteLength":15872,
			"byteOffset":220032,
			"target":34962
		},
		{
			"buffer":0,
			"byteLength":23808,
			"byteOffset":235904,
			"target":34962
		},
		{
			"buffer":0,
			"byteLength":23808,
			"byteOffset":259712,
			"target":34962
		},
		{
			"buffer":0,
			"byteLength":15872,
			"byteOffset":283520,
			"target":34962
		},
		{
			"buffer":0,
			"byteLength":23808,
			"byteOffset":299392,
			"target":34962
		},
		{
			"buffer":0,
			"byteLength":1536,
			"byteOffset":323200,
			"target":34962
		},
		{
			"buffer":0,
			"byteLength":1024,
			"byteOffset":324736,
			"target":34962
		},
		{
			"buffer":0,
			"byteLength":1536,
			"byteOffset":325760,
			"target":34962
		},
		{
			"buffer":0,
			"byteLength":372,
			"byteOffset":327296,
			"target":34963
		},
		{
			"buffer":0,
			"byteLength":2304,
			"byteOffset":327668,
			"target":34962
		},
		{
			"buffer":0,
			"byteLength":1536,
			"byteOffset":329972,
			"target":34962
		},
		{
			"buffer":0,
			"byteLength":2304,
			"byteOffset":331508,
			"target":34962
		},
		{
			"buffer":0,
			"byteLength":744,
			"byteOffset":333812,
			"target":34963
		},
		{
			"buffer":0,
			"byteLength":2304,
			"byteOffset":334556,
			"target":34962
		},
		{
			"buffer":0,
			"byteLength":1536,
			"byteOffset":336860,
			"target":34962
		},
		{
			"buffer":0,
			"byteLength":2304,
			"byteOffset":338396,
			"target":34962
		},
		{
			"buffer":0,
			"byteLength":2304,
			"byteOffset":340700,
			"target":34962
		},
		{
			"buffer":0,
			"byteLength":1536,
			"byteOffset":343004,
			"target":34962
		},
		{
			"buffer":0,
			"byteLength":2304,
			"byteOffset":344540,
			"target":34962
		},
		{
			"buffer":0,
			"byteLength":2304,
			"byteOffset":346844,
			"target":34962
		},
		{
			"buffer":0,
			"byteLength":1536,
			"byteOffset":349148,
			"target":34962
		},
		{
			"buffer":0,
			"byteLength":2304,
			"byteOffset":350684,
			"target":34962
		},
		{
			"buffer":0,
			"byteLength":23808,
			"byteOffset":352988,
			"target":34962
		},
		{
			"buffer":0,
			"byteLength":15872,
			"byteOffset":376796,
			"target":34962
		},
		{
			"buffer":0,
			"byteLength":23808,
			"byteOffset":392668,
			"target":34962
		},
		{
			"buffer":0,
			"byteLength":23808,
			"byteOffset":416476,
			"target":34962
		},
		{
			"buffer":0,
			"byteLength":15872,
			"byteOffset":440284,
			"target":34962
		},
		{
			"buffer":0,
			"byteLength":23808,
			"byteOffset":456156,
			"target":34962
		},
		{
			"buffer":0,
			"byteLength":23808,
			"byteOffset":479964,
			"target":34962
		},
		{
			"buffer":0,
			"byteLength":15872,
			"byteOffset":503772,
			"target":34962
		},
		{
			"buffer":0,
			"byteLength":23808,
			"byteOffset":519644,
			"target":34962
		}
	],
	"buffers":[
		{
			"byteLength":543452,
			"uri":"Snowman1.bin"
		}
	]
}
